<svg xmlns="http://www.w3.org/2000/svg">
    <symbol id="plus-circle" viewBox="0 0 16 16">
        <path d="M8 15A7 7 0 1 1 8 1a7 7 0 0 1 0 14m0 1A8 8 0 1 0 8 0a8 8 0 0 0 0 16"/>
        <path d="M8 4a.5.5 0 0 1 .5.5v3h3a.5.5 0 0 1 0 1h-3v3a.5.5 0 0 1-1 0v-3h-3a.5.5 0 0 1 0-1h3v-3A.5.5 0 0 1 8 4"/>
    </symbol>
    <symbol id="x-circle" viewBox="0 0 16 16">
        <path d="M8 15A7 7 0 1 1 8 1a7 7 0 0 1 0 14m0 1A8 8 0 1 0 8 0a8 8 0 0 0 0 16"/>
        <path d="M4.646 4.646a.5.5 0 0 1 .708 0L8 7.293l2.646-2.647a.5.5 0 0 1 .708.708L8.707 8l2.647 2.646a.5.5 0 0 1-.708.708L8 8.707l-2.646 2.647a.5.5 0 0 1-.708-.708L7.293 8 4.646 5.354a.5.5 0 0 1 0-.708"/>
    </symbol>
    <symbol id="recycle" viewBox="0 0 16 16">
        <path d="M9.302 1.256a1.5 1.5 0 0 0-2.604 0l-1.704 2.98a.5.5 0 0 0 .869.497l1.703-2.981a.5.5 0 0 1 .868 0l2.54 4.444-1.256-.337a.5.5 0 1 0-.26.966l2.415.647a.5.5 0 0 0 .613-.353l.647-2.415a.5.5 0 1 0-.966-.259l-.333 1.242zM2.973 7.773l-1.255.337a.5.5 0 1 1-.26-.966l2.416-.647a.5.5 0 0 1 .612.353l.647 2.415a.5.5 0 0 1-.966.259l-.333-1.242-2.545 4.454a.5.5 0 0 0 .434.748H5a.5.5 0 0 1 0 1H1.723A1.5 1.5 0 0 1 .421 12.24zm10.89 1.463a.5.5 0 1 0-.868.496l1.716 3.004a.5.5 0 0 1-.434.748h-5.57l.647-.646a.5.5 0 1 0-.708-.707l-1.5 1.5a.5.5 0 0 0 0 .707l1.5 1.5a.5.5 0 1 0 .708-.707l-.647-.647h5.57a1.5 1.5 0 0 0 1.302-2.244z"/>
    </symbol>
</svg>
